<?xml version="1.0" encoding="utf-8"?>
<!-- Generator: Adobe Illustrator 24.0.2, SVG Export Plug-In . SVG Version: 6.00 Build 0)  -->
<svg version="1.1" id="Layer_1" xmlns="http://www.w3.org/2000/svg" xmlns:xlink="http://www.w3.org/1999/xlink" x="0px" y="0px"
	 viewBox="0 0 600 600" style="enable-background:new 0 0 600 600;" xml:space="preserve">
<style type="text/css">
	.st0{fill:#FFFFFF;stroke:#445664;stroke-width:2.232;stroke-miterlimit:10;}
	.st1{fill:none;stroke:#445664;stroke-width:2.232;stroke-miterlimit:10;}
	.st2{fill:none;stroke:#ABB0B7;stroke-width:2.232;stroke-miterlimit:10;}
	.st3{fill:none;stroke:#D8E1E3;stroke-width:2.232;stroke-miterlimit:10;}
	.st4{fill:#FFFFFF;stroke:#970E76;stroke-width:2.232;stroke-miterlimit:10;}
	.st5{fill:#970E76;stroke:#970E76;stroke-width:2.232;stroke-miterlimit:10;}
	.st6{fill:none;stroke:#FFFFFF;stroke-miterlimit:10;}
	.st7{fill:#FFFFFF;stroke:#ED6723;stroke-width:2.232;stroke-miterlimit:10;}
	.st8{fill:#ED6723;stroke:#ED6723;stroke-width:2.232;stroke-miterlimit:10;}
	.st9{fill:#FFFFFF;stroke:#3A84B6;stroke-width:2.232;stroke-miterlimit:10;}
	.st10{fill:#3A84B6;stroke:#3A84B6;stroke-width:2.232;stroke-miterlimit:10;}
	.st11{fill:none;stroke:#8A941E;stroke-width:2.232;stroke-miterlimit:10;stroke-dasharray:7.1751,7.1751;}
	.st12{fill:#8A941E;}
	.st13{fill:#FAA41A;stroke:#FAA41A;stroke-width:2.232;stroke-miterlimit:10;}
	.st14{fill:#FFFFFF;stroke:#FAA41A;stroke-width:2.232;stroke-miterlimit:10;}
	.st15{fill:none;stroke:#FFFFFF;stroke-width:2.232;stroke-miterlimit:10;}
	.st16{fill:#3A84B6;}
	.st17{opacity:0.3;fill:#3A84B6;}
	.st18{fill:none;stroke:#3A84B6;stroke-width:3;stroke-miterlimit:10;}
	.st19{fill:#BFD22B;}
	.st20{fill:none;stroke:#3A84B6;stroke-miterlimit:10;}
	.st21{fill:#EE3441;}
	.st22{fill:none;stroke:#FFFFFF;stroke-width:6;stroke-miterlimit:10;}
	.st23{fill:#D8E1E3;stroke:#445664;stroke-width:2.232;stroke-miterlimit:10;}
	.st24{fill:none;stroke:#8A941E;stroke-width:2.232;stroke-miterlimit:10;stroke-dasharray:7.175,7.175;}
	.st25{fill-rule:evenodd;clip-rule:evenodd;fill:none;stroke:#ED6723;stroke-width:1.3392;stroke-miterlimit:10;}
	.st26{fill-rule:evenodd;clip-rule:evenodd;fill:none;stroke:#ED6723;stroke-miterlimit:10;}
	.st27{fill:none;stroke:#ED6723;stroke-width:1.3392;stroke-miterlimit:10;}
	.st28{opacity:0.5;}
	.st29{fill-rule:evenodd;clip-rule:evenodd;fill:#FAA41A;}
	.st30{fill:#FAA41A;}
	.st31{fill:none;stroke:#3A84B6;stroke-width:1.3392;stroke-miterlimit:10;}
	.st32{fill:none;stroke:#3A84B6;stroke-width:0.6;stroke-miterlimit:10;}
	.st33{fill:#FFFFFF;stroke:#00B5D1;stroke-width:2.232;stroke-miterlimit:10;}
	.st34{fill:none;stroke:#00B5D1;stroke-width:1.339;stroke-miterlimit:10;stroke-dasharray:2;}
	.st35{fill:#00B5D1;}
	.st36{fill:#FFFFFF;stroke:#8A941E;stroke-width:2.232;stroke-miterlimit:10;}
	.st37{fill:none;stroke:#970E76;stroke-width:1.3392;stroke-miterlimit:10;}
	.st38{fill:none;stroke:#970E76;stroke-miterlimit:10;}
	.st39{fill:none;stroke:#FAA41A;stroke-miterlimit:10;}
	.st40{fill:none;stroke:#FAA41A;stroke-width:1.3392;stroke-miterlimit:10;}
	.st41{fill:none;stroke:#FAA41A;stroke-width:1.0585;stroke-miterlimit:10;}
	.st42{fill:none;stroke:#EE3441;stroke-width:1.3392;stroke-miterlimit:10;}
	.st43{fill:none;stroke:#8A941E;stroke-width:1.3392;stroke-miterlimit:10;}
	.st44{fill:#FFFFFF;}
	.st45{fill:#445664;}
	.st46{fill:none;stroke:#00B5D1;stroke-width:2.232;stroke-miterlimit:10;stroke-dasharray:7.1751,7.1751;}
	.st47{fill:#445664;stroke:#FFFFFF;stroke-miterlimit:10;}
</style>
<g>
	<path class="st25" d="M112.7,335.1h58.2c1.1,0,2.1,0.9,2.1,2.1v38.3c0,1.1-0.9,2.1-2.1,2.1h-58.2c-1.1,0-2.1-0.9-2.1-2.1v-38.3
		C110.6,336,111.6,335.1,112.7,335.1L112.7,335.1z"/>
	<path class="st25" d="M141.1,385.2h-31.3c-1.3,0-2.4-1.1-2.4-2.4v-2.9c0-0.1,0-0.1,0-0.2h33.7"/>
	<path class="st25" d="M140.9,379.8h33.7c0,0.1,0,0.1,0,0.2v2.9c0,1.3-1.1,2.4-2.4,2.4h-31.3"/>
	<polygon class="st25" points="147.5,364.5 134.5,364.5 134.5,342.5 166.6,342.5 166.6,364.6 154.1,364.6 147.6,371.8 	"/>
	<rect x="115.8" y="365.1" class="st25" width="11.6" height="7.5"/>
	<rect x="115.8" y="353.1" class="st25" width="11.6" height="7.5"/>
	<rect x="115.8" y="341.2" class="st25" width="11.6" height="7.5"/>
	<rect x="134" y="381.4" class="st26" width="14.3" height="1.9"/>
	<path class="st27" d="M150.5,357.2c3.5,0,6.3-2.8,6.3-6.3c0-3.5-2.8-6.3-6.3-6.3c-3.5,0-6.3,2.8-6.3,6.3
		C144.2,354.4,147,357.2,150.5,357.2z"/>
	<polyline class="st27" points="160.9,363.9 160.9,360 154.1,358.7 150.5,362.9 146.8,358.7 140.1,360 140.1,363.9 	"/>
</g>
<g>
	<g>
		<g>
			<g>
				<path class="st31" d="M228.9,441.9l-44.6-0.1c-1.9,0-3.4-1.6-3.4-3.4l0.1-44.6c0-1.9,1.6-3.4,3.4-3.4l44.6,0.1
					c1.9,0,3.4,1.6,3.4,3.4l-0.1,44.6C232.3,440.3,230.8,441.9,228.9,441.9z"/>
			</g>
		</g>
		<path class="st31" d="M221,426l-8.7,0c-0.6,0-1,0.5-1,1c0,0.6,0.4,1,1,1l8.7,0c0.6,0,1-0.4,1-1C222,426.4,221.6,426,221,426z
			 M221,416.4l-8.8,0c-0.6,0-1,0.5-1,1c0,0.6,0.4,1,1,1l8.8,0c0.6,0,1-0.4,1-1C222,416.9,221.6,416.4,221,416.4z M202.7,410.5l6,0
			c0.6,0,1-0.4,1-1c0-0.6-0.5-1-1-1l-6,0c-0.6,0-1,0.4-1,1C201.7,410,202.2,410.5,202.7,410.5z M202.7,405.9l6,0c0.6,0,1-0.4,1-1
			c0-0.6-0.5-1-1-1l-6,0c-0.6,0-1,0.5-1,1C201.7,405.5,202.2,405.9,202.7,405.9z M221,421.2l-8.8,0c-0.6,0-1,0.5-1,1
			c0,0.6,0.4,1,1,1l8.8,0c0.6,0,1-0.4,1-1C222,421.6,221.6,421.2,221,421.2z M228.2,409.2l-12.6-12.6c-0.2-0.2-0.6-0.4-0.9-0.4
			l-14.2,0c-3.1,0-5,1.9-5,4.9l0,13l2.5,0l0-13c0-1.7,0.8-2.4,2.4-2.4l12.6,0l0,7.7c0,3.1,1.9,5,5,5l8,0l-0.1,19.8
			c0,1.7-0.8,2.3-2.4,2.3l-12.6,0l0,0.6c0,0.7-0.2,1.4-0.5,2c6.2,0,13.1,0,13.1,0c3.1,0,5-1.8,5-4.8l0.1-21.2
			C228.5,409.7,228.4,409.4,228.2,409.2z M218,408.9c-1.7,0-2.4-0.8-2.4-2.5l0-6.3l8.7,8.8L218,408.9z"/>
		<g>
			<path class="st32" d="M207.2,415.9l-19.7-0.1c-1,0-1.9,0.9-1.9,2l0,16.1c0,1.1,0.8,2,1.8,2l19.6,0.1c1,0,1.9-0.9,1.9-2l0.1-16.1
				C209,416.8,208.2,415.9,207.2,415.9z"/>
		</g>
	</g>
	<g>
		<path class="st31" d="M197.3,426.6c2.3,0,4.2-1.9,4.2-4.2c0-2.3-1.9-4.2-4.2-4.2c-2.3,0-4.2,1.9-4.2,4.2
			C193.2,424.7,195,426.6,197.3,426.6z"/>
		<polygon class="st31" points="204.3,433.6 204.3,428.5 199.8,427.8 197.3,430.6 194.9,427.8 190.4,428.5 190.4,433.6 		"/>
	</g>
</g>
<g>
	<path class="st33" d="M299.2,263.3l2.5-8.5c0-0.1,0-0.3,0-0.4V231h31.1c1.7,0,3.1-1.4,3.1-3.1c0-11-6.8-20.2-16.2-25.5l0,0l-2-14.8
		h7.3c2.6,0,4.7-2.1,4.7-4.7v-15.6c0-2.6-2.1-4.7-4.7-4.7h-52.9c-2.6,0-4.7,2.1-4.7,4.7v15.6c0,2.6,2.1,4.7,4.7,4.7h7.3l-2,14.8
		c-9.4,5.4-16.2,14.5-16.2,25.5c0,1.7,1.4,3.1,3.1,3.1h31.1v23.5c0,0.1,0,0.3,0,0.4l2.5,8.5H299.2z"/>
	<path class="st34" d="M267.8,224.7c1.3-8.3,7.7-14.9,15.5-18.4l3-25h-12.4v-12.4h49.8v12.4h-12.4l3,25.1
		c7.8,3.5,14.1,10.1,15.5,18.4L267.8,224.7L267.8,224.7z"/>
	<path class="st35" d="M298.8,183.9c2.7,0,4.9-2.2,4.9-4.9c0-2.7-2.2-4.9-4.9-4.9s-4.9,2.2-4.9,4.9
		C293.9,181.7,296.1,183.9,298.8,183.9z M301.7,186.1l-2.9,4.4l-2.9-4.4l-5.4,1.1v16.1l3.3,2.6l1.6,15h6.6l1.6-15l3.3-2.6v-16.1
		L301.7,186.1z"/>
</g>
<g>
	<path class="st36" d="M199.4,223.7c10,0,18.2-8.1,18.2-18.2c0-10-8.1-18.2-18.2-18.2c-10,0-18.2,8.1-18.2,18.2
		C181.2,215.5,189.3,223.7,199.4,223.7z"/>
	<polygon class="st36" points="210,231.8 199.4,248.2 188.8,231.8 169.1,235.8 169.1,280.2 181.2,289.7 187.3,344.9 211.5,344.9 
		217.6,289.7 229.7,280.2 229.7,235.8 	"/>
</g>
<g>
	<path class="st4" d="M404,223.7c10,0,18.2-8.1,18.2-18.2c0-10-8.1-18.2-18.2-18.2c-10,0-18.2,8.1-18.2,18.2
		C385.8,215.5,394,223.7,404,223.7z"/>
	<polygon class="st4" points="414.6,231.8 404,248.2 393.4,231.8 373.7,235.8 373.7,280.2 385.8,289.7 391.9,344.9 416.1,344.9 
		422.2,289.7 434.3,280.2 434.3,235.8 	"/>
</g>
<g>
	<path class="st37" d="M68.3,305.7c-12,0.1-21.7,8.2-21.6,18.2c0,5.5,3,10.4,7.8,13.7c-0.2,2.8-1.4,6.1-6.1,9.4
		c7.7,0.3,12.9-3.6,15.2-5.7c1.6,0.3,3.3,0.5,5,0.4c12-0.1,21.7-8.2,21.6-18.2C90.1,313.6,80.3,305.6,68.3,305.7z"/>
	<path class="st38" d="M59,326.2c-1.5,0-2.8-1.2-2.8-2.7c0-1.5,1.2-2.8,2.7-2.8c1.5,0,2.8,1.2,2.8,2.7S60.5,326.2,59,326.2z"/>
	<path class="st38" d="M68.7,326.2c-1.5,0-2.8-1.2-2.8-2.7c0-1.5,1.2-2.8,2.7-2.8c1.5,0,2.8,1.2,2.8,2.7S70.2,326.2,68.7,326.2z"/>
	<path class="st38" d="M78.4,326.1c-1.5,0-2.8-1.2-2.8-2.7c0-1.5,1.2-2.8,2.7-2.8c1.5,0,2.8,1.2,2.8,2.7
		C81.2,324.9,80,326.1,78.4,326.1z"/>
	<g>
		<path class="st37" d="M33.9,325.2h-5v-3.8h5v-4.9h3.9v4.9h5v3.8h-5v4.9h-3.9V325.2z"/>
	</g>
	<g>
		<path class="st37" d="M94.4,321.5h9.9v3.8h-9.9V321.5z"/>
	</g>
</g>
<g>
	<path class="st39" d="M463.3,343.7h-2.7c-0.4,0-0.7-0.3-0.7-0.7c0-0.4,0.3-0.7,0.7-0.7h2.7c0.4,0,0.7,0.3,0.7,0.7
		C464,343.4,463.7,343.7,463.3,343.7z"/>
	<path class="st39" d="M461.9,390.4c-1.3,0-2.4-1.1-2.4-2.4c0-1.3,1.1-2.4,2.4-2.4c1.3,0,2.4,1.1,2.4,2.4
		C464.3,389.4,463.3,390.4,461.9,390.4z"/>
	<g>
		<path class="st39" d="M470.4,388.8H467c-0.4,0-0.7-0.3-0.7-0.7s0.3-0.7,0.7-0.7h3.4c0.4,0,0.7,0.3,0.7,0.7
			S470.8,388.8,470.4,388.8z"/>
		<path class="st39" d="M456.8,388.8h-3.4c-0.4,0-0.7-0.3-0.7-0.7s0.3-0.7,0.7-0.7h3.4c0.4,0,0.7,0.3,0.7,0.7
			S457.2,388.8,456.8,388.8z"/>
	</g>
	<g>
		<g>
			<path class="st39" d="M466.7,374.6c-0.1,0-0.1,0-0.2,0c-0.2-0.1-0.3-0.3-0.3-0.5v-2.6H465c-1.5,0-2.7-1.2-2.7-2.7v-8.6
				c0-1.5,1.1-2.5,2.7-2.5h15.4c1.6,0,2.6,1,2.6,2.5v8.6c0,1.6-1.1,2.7-2.6,2.7h-10.3l-3.1,3C467,374.5,466.8,374.6,466.7,374.6z"/>
			<g>
				<path class="st39" d="M478.8,363.1h-12.4c-0.3,0-0.5-0.2-0.5-0.5c0-0.3,0.2-0.5,0.5-0.5h12.4c0.3,0,0.5,0.2,0.5,0.5
					C479.3,362.9,479.1,363.1,478.8,363.1z"/>
				<path class="st39" d="M475.9,366.5h-9.4c-0.3,0-0.5-0.2-0.5-0.5s0.2-0.5,0.5-0.5h9.4c0.3,0,0.5,0.2,0.5,0.5
					S476.1,366.5,475.9,366.5z"/>
			</g>
		</g>
	</g>
	<path class="st40" d="M477.7,371.8v19c0,1-0.8,1.8-1.8,1.8H448c-1,0-1.8-0.8-1.8-1.8v-49c0-1,0.8-1.8,1.8-1.8h27.8
		c1,0,1.8,0.8,1.8,1.8v15.9"/>
	<path class="st41" d="M475,371.2v11.3c0,0.8-0.6,1.4-1.4,1.4h-23.3c-0.8,0-1.4-0.6-1.4-1.4v-35.6c0-0.8,0.6-1.4,1.4-1.4h23.3
		c0.8,0,1.4,0.6,1.4,1.4v11"/>
</g>
<g>
	<g>
		<path class="st42" d="M571.7,353.1c-1.2-8.7-7-15.2-13.3-15.2v0l-35.3,0l-0.9,0v0c-6.1,0.6-11.4,7-12.5,15.2
			c-1.3,9.3,3.2,17.6,10.1,18.6c6,0.8,11.8-4.2,14.1-12l13.8,0c2,7.2,7.2,12.1,12.8,12.1c0.4,0,0.9,0,1.3-0.1
			C568.4,370.8,572.9,362.4,571.7,353.1z"/>
	</g>
	<g>
		<path class="st42" d="M552.7,355.7C552.7,355.7,552.7,355.7,552.7,355.7c-1.7,0-3-1.4-3-3c0-0.8,0.3-1.6,0.9-2.1
			c0.6-0.6,1.3-0.9,2.1-0.9c0,0,0,0,0,0c0.8,0,1.6,0.3,2.1,0.9c0.6,0.6,0.9,1.3,0.9,2.1c0,0.8-0.3,1.6-0.9,2.1
			C554.3,355.4,553.6,355.7,552.7,355.7z"/>
	</g>
	<g>
		<path class="st42" d="M558,349.8C558,349.8,558,349.8,558,349.8L558,349.8c-1.7,0-3-1.4-3-3c0-0.8,0.3-1.6,0.9-2.1
			c0.6-0.6,1.3-0.9,2.1-0.9c0,0,0,0,0,0c0.8,0,1.6,0.3,2.1,0.9c0.6,0.6,0.9,1.3,0.9,2.1c0,0.8-0.3,1.6-0.9,2.1
			C559.6,349.5,558.8,349.8,558,349.8z"/>
	</g>
	<g>
		<path class="st42" d="M523.1,360.1C523.1,360.1,523.1,360.1,523.1,360.1c-1.7,0-3.1-1.4-3.1-3.1l0-1.8l-1.8,0
			c-1.7,0-3.1-1.4-3.1-3.1c0-0.8,0.3-1.6,0.9-2.2c0.6-0.6,1.4-0.9,2.2-0.9c0,0,0,0,0,0l1.8,0l0-1.8c0-0.8,0.3-1.6,0.9-2.2
			c0.6-0.6,1.4-0.9,2.2-0.9c0,0,0,0,0,0c0.8,0,1.6,0.3,2.2,0.9c0.6,0.6,0.9,1.4,0.9,2.2l0,1.8l1.8,0c1.7,0,3.1,1.4,3.1,3.1
			c0,0.8-0.3,1.6-0.9,2.2c-0.6,0.6-1.4,0.9-2.2,0.9c0,0,0,0,0,0l-1.8,0l0,1.8C526.2,358.7,524.8,360.1,523.1,360.1z"/>
	</g>
	<g>
		<path class="st42" d="M558,361.5C558,361.5,558,361.5,558,361.5c-1.7,0-3-1.4-3-3c0-0.8,0.3-1.6,0.9-2.1c0.6-0.6,1.3-0.9,2.1-0.9
			c0,0,0,0,0,0c0.8,0,1.6,0.3,2.1,0.9c0.6,0.6,0.9,1.3,0.9,2.1C561.1,360.1,559.7,361.5,558,361.5z"/>
	</g>
	<g>
		<path class="st42" d="M563.3,355.7C563.3,355.7,563.3,355.7,563.3,355.7c-0.8,0-1.6-0.3-2.1-0.9c-0.6-0.6-0.9-1.3-0.9-2.1
			c0-1.7,1.4-3,3-3c0,0,0,0,0,0c0.8,0,1.6,0.3,2.1,0.9c0.6,0.6,0.9,1.3,0.9,2.1c0,0.8-0.3,1.6-0.9,2.1
			C564.9,355.4,564.1,355.7,563.3,355.7z"/>
	</g>
</g>
<g>
	<path class="st43" d="M498.9,392.1c-3.2,0.8-3.9,1.2-3.5,3l0.6,2.7c0.1,0.5-0.2,1-0.7,1.3c-0.7,0.4-1.4,0.8-2,1.3
		c-0.6,0.5-1.3,1-1.9,1.5c-0.4,0.3-1,0.5-1.4,0.2c-0.8-0.5-1.6-1-2.4-1.5c-1.7-1-2.3-0.3-4.3,3c-2.1,3.3-2.4,4.1-0.8,5.2l2.3,1.5
		c0.5,0.3,0.6,0.9,0.4,1.4c-0.2,0.8-0.4,1.5-0.5,2.3c-0.1,0.8-0.2,1.6-0.3,2.4c0,0.5-0.3,1-0.9,1.2l-2.7,0.6
		c-1.9,0.5-1.8,1.4-0.9,5.2c0.9,3.8,1.2,4.7,3.1,4.2l2.7-0.6c0.5-0.1,1,0.2,1.3,0.7c0.4,0.7,0.8,1.4,1.3,2c0.2,0.2,0.4,0.5,0.5,0.7
		c1.3-1.9,2.6-3.8,4-5.7c-0.7-1.2-1.2-2.5-1.5-3.9c-1.8-7.8,3-15.6,10.8-17.4c0.2,0,0.3-0.1,0.5-0.1c0-2.7,1.1-5.3,2.8-7.4
		c0-0.1-0.1-0.1-0.1-0.2l-0.6-2.7c-0.5-1.9-1.4-1.8-5.2-0.9C499.4,392,499.1,392.1,498.9,392.1L498.9,392.1z"/>
	<path class="st43" d="M527.6,407.9c-1.1,2.4-3.1,4.5-5.5,5.7c0,0.2,0.1,0.3,0.1,0.5c1.8,7.8-3,15.6-10.8,17.4
		c-1.4,0.3-2.9,0.5-4.3,0.4c-1.1,2-2.2,4.1-3.3,6.1c0.3,0.1,0.6,0.1,0.9,0.2c0.8,0.1,1.6,0.2,2.4,0.3c0.5,0,1,0.3,1.2,0.9l0.6,2.7
		c0.5,1.9,1.4,1.8,5.2,0.9c3.8-0.9,4.7-1.2,4.2-3.1l-0.6-2.7c-0.1-0.5,0.2-1,0.7-1.3c0.7-0.4,1.4-0.8,2-1.3c0.7-0.5,1.3-1,1.9-1.5
		c0.4-0.3,1-0.5,1.4-0.2l2.4,1.5c1.7,1,2.3,0.3,4.3-3c2.1-3.3,2.4-4.1,0.8-5.2c-0.8-0.5-1.6-1-2.3-1.5c-0.5-0.3-0.6-0.9-0.4-1.4
		c0.2-0.8,0.4-1.6,0.5-2.4c0.1-0.8,0.2-1.6,0.3-2.4c0-0.5,0.3-1,0.9-1.2l2.7-0.6c1.9-0.5,1.8-1.4,0.9-5.2s-1.2-4.7-3.1-4.2l-2.7,0.6
		C527.7,407.9,527.7,407.9,527.6,407.9z"/>
	<path id="path12330_3_" class="st43" d="M516.9,393.2c0,0-0.1,0-0.1,0c-3.8-0.4-7.6,1.3-9.7,4.7c-2.2,3.5-2,7.9,0.3,11.1
		c-5.3,7.3-12.2,17-17.3,24.4c-1.9,2.7-0.9,6.5,1.9,8.2c2.8,1.7,6.6,1,8.2-1.9l14.1-26.4c3.9,0.6,7.9-1.2,10.1-4.7
		c2.1-3.4,2-7.6-0.1-10.8c0,0,0-0.1-0.1-0.1c-0.2-0.1-0.4-0.1-0.5,0.1l-4.4,7.1c-0.3,0.5-0.9,0.6-1.4,0.3l-4.9-3
		c-0.5-0.3-0.6-0.9-0.3-1.4l4.4-7.1C517.1,393.5,517,393.3,516.9,393.2L516.9,393.2z M496.8,433.6c1.6,1,2.1,3.2,1.1,4.8
		c-1,1.6-3.2,2.1-4.8,1.1c-1.6-1-2.1-3.2-1.1-4.8C493.1,433.1,495.2,432.6,496.8,433.6z"/>
</g>
<g>
	<path class="st44" d="M513.2,199.4l-12.6,3.5v-4.3l12.6-3.8V199.4L513.2,199.4z M513.2,209.2l-12.6,3.5v-4.4l12.6-3.5V209.2
		L513.2,209.2z"/>
	<path class="st45" d="M498.4,224.9l22.8,12c0.9,0.2,1.5-0.4,1.7-1.1c0.1-0.5-0.1-0.9-0.2-1.1c-0.3-0.4-0.7-0.7-1.2-0.9l-0.2-0.1
		l-22.7-12.1c-0.1,0-0.1,0-0.2,0.1l-30.9,13.3c-2.1,0.8-2.4,2.3-2.4,3.4v75.5l-9.5,0c-0.9,0-1.6,0.8-1.6,1.7s0.8,1.7,1.6,1.7h113.1
		c0.9,0,1.6-0.8,1.6-1.7s-0.8-1.7-1.6-1.7h-12.7v-98.1c0-0.7-0.3-1.2-0.9-1.5l-0.1-0.1l-37.1-24.8c-0.3-0.1-0.7-0.2-1.1-0.1
		l-19.2,5.8c-0.7,0.2-1.2,0.8-1.2,1.5V218l17.6-4.7v11.3l38.2,18.6v6.2L527.9,237v3.2l24.5,11.9v6.2l-24.5-10.5v3.2l24.5,10v6
		l-24.5-8.4v3.2l24.5,7.8v5.2l-0.5,0.3c-0.4,0.3-0.4,0.3-9.5-2.1c-5.1-1.3-11.8-3-14.5-3.7v3.3c2.1,0.5,8.4,1.9,13.6,3.1
		c2.7,0.6,5.2,1.2,7.1,1.6c3.8,0.9,3.8,0.9,3.8,1.7v4.9l-24.5-3.7v3.2l24.5,3.2v6.4l-24.5-2v3.2l24.5,2v5.5l-0.3,0.3
		c-0.3,0.3-0.3,0.3-12.2,0c-3.6-0.1-9.5-0.2-12-0.3v3.2c1.2,0,3.2,0,6.8,0.1c4.3,0.1,9.4,0.2,12.8,0.3c1.5,0,2.7,0.1,3.2,0.1
		l1.4-1.4v9.9h-83.3v-7.6l29.5-2.2l0.1,0l22.5,1.2c1,0.1,2-0.7,2-1.5c0-0.4,0-1.6-1.1-1.7l-23.6-1.2l-29.4,2.2V295l29.5-4l0.1,0
		l22.5,3.7c0.4,0.1,0.9-0.1,1.2-0.3c0.4-0.3,0.6-0.6,0.7-1.1c0.1-0.5,0-0.9-0.3-1.2c-0.1-0.2-0.4-0.5-0.9-0.6l-23.2-3.7
		c-0.1,0-0.1,0-0.2,0l-29.5,4v-8l29.6-6l22.6,5.9c0.9,0.1,1.8-0.5,1.9-1.4c0.1-0.5,0-0.9-0.3-1.2c-0.1-0.2-0.4-0.5-0.9-0.6l-0.1,0
		l-23.2-5.9l-29.6,6v-8.3l29.6-7.6l22.7,8c0.8,0.1,1.6-0.4,1.8-1.3c0.2-0.9-0.4-1.7-1.3-1.9l-0.1,0l-23.1-8c0,0,0,0-0.1,0l-29.6,7.6
		v-8.6l29.6-8.9l22.8,9.5c0.4,0.1,0.7,0,1-0.1c0.4-0.2,0.6-0.6,0.7-1c0.1-0.4,0-0.8-0.2-1.1c-0.3-0.4-0.7-0.8-1.2-0.9l-0.1,0
		l-22.8-9.6c0,0-0.1,0-0.1,0c0,0-0.1,0-0.1,0l-29.7,8.8v-7.8l29.6-10.9l22.8,10.9c0.8,0.2,1.5-0.3,1.8-1.1c0.2-0.8-0.5-1.8-1.4-2
		l-0.2-0.1l-22.8-11l-0.2,0l-29.7,10.7v-7.8L498.4,224.9z M552.4,240.6l-1.5-0.8c-10.9-5.8-31.4-16.8-33.1-17.7l-0.7-0.1v-7.7
		l35.2,20.2V240.6z M552.4,231.8L517.1,211v-7.6l35.2,22V231.8z M552.4,222.7l-35.2-22.6v-7.9l35.2,24.1V222.7z M499.6,214.1v-6.5
		l14.6-4.1v6.5L499.6,214.1z M499.6,204.3v-6.4l14.6-4.4v6.7L499.6,204.3z"/>
</g>
<g>
	<g>
		<path class="st46" d="M303.2,157.7c8.1-21.1,26-35.7,46.8-35.7c25.2,0,46.2,21.5,50.5,49.9"/>
		<g>
			<polygon class="st35" points="401.3,182.8 393.8,168 400.3,171.1 406.2,167 			"/>
		</g>
	</g>
</g>
<g>
	<g>
		<path class="st46" d="M296.9,157.7c-8.1-21.1-26-35.7-46.8-35.7c-25.2,0-46.2,21.5-50.5,49.9"/>
		<g>
			<polygon class="st35" points="198.8,182.8 193.8,167 199.8,171.1 206.3,168 			"/>
		</g>
	</g>
</g>
<g>
	<g>
		<polygon class="st31" points="408.2,409.6 412.4,409.6 410.5,398.6 406.9,397.2 406.9,397.2 406.9,397.2 403.6,404.7 400.4,397.2 
			396.7,398.6 394.8,409.6 398.3,409.6 395.1,420.6 399.2,420.6 399.9,432.7 403.3,432.7 403.3,420.7 403.9,420.7 403.9,432.7 
			407.4,432.7 408,420.6 412.5,420.6 		"/>
	</g>
	<g>
		<polygon class="st31" points="386.3,390.1 383.7,394.2 381.1,390.1 376.2,391.1 376.2,402.1 379.2,404.4 380.7,418 386.7,418 
			388.2,404.4 391.2,402.1 391.2,391.1 		"/>
		<circle class="st31" cx="383.7" cy="384.9" r="3.9"/>
	</g>
	<g>
		<g>
			<polygon class="st31" points="427.7,399.6 431,399.6 429.5,390.9 426.6,389.7 426.6,389.7 426.6,389.7 424.1,395.7 421.5,389.7 
				418.6,390.9 417.1,399.6 419.8,399.6 417.2,408.3 420.5,408.3 421.1,417.9 423.8,417.9 423.8,408.4 424.3,408.4 424.3,417.9 
				427,417.9 427.6,408.3 431.1,408.3 			"/>
		</g>
		<circle class="st31" cx="424" cy="385" r="3.9"/>
	</g>
	<circle class="st31" cx="403.7" cy="391.7" r="4.2"/>
	<path class="st31" d="M419.1,420.5c0,8.3-6.8,15.1-15.1,15.1c-8.3,0-15.1-6.8-15.1-15.1l-9.8,0c0,2.5-1.6,4.6-3.7,5.4
		c-1,0.4-1.7,1.2-1.5,2.2c0.7,3,1.9,5.7,3.4,8.3c0.5,0.9,1.7,1,2.6,0.5c2.1-1,4.7-0.6,6.5,1.2c1.7,1.7,2.1,4.3,1.2,6.4
		c-0.4,1-0.4,2.1,0.5,2.6c2.6,1.5,5.3,2.7,8.3,3.4c1,0.3,1.9-0.5,2.2-1.5c0.8-2.2,2.9-3.7,5.4-3.7c2.5,0,4.6,1.6,5.4,3.7
		c0.4,1,1.2,1.7,2.2,1.5c3-0.7,5.7-1.9,8.3-3.4c0.9-0.5,1-1.7,0.5-2.6c-1-2.1-0.6-4.7,1.2-6.4c1.7-1.7,4.3-2.1,6.4-1.2
		c1,0.4,2.1,0.4,2.6-0.5c1.5-2.6,2.7-5.3,3.4-8.3c0.3-1-0.5-1.9-1.5-2.2c-2.2-0.8-3.7-2.9-3.7-5.4H419.1z"/>
	<path class="st31" d="M442.7,418.6c-0.5-0.2-0.8-0.6-0.8-1.1c0-0.5,0.3-1,0.8-1.1c0.2-0.1,0.4-0.3,0.3-0.5
		c-0.2-0.6-0.4-1.2-0.7-1.8c-0.1-0.2-0.3-0.2-0.6-0.1c-0.4,0.2-1,0.1-1.4-0.2c-0.4-0.4-0.4-0.9-0.2-1.4c0.1-0.2,0.1-0.4-0.1-0.6
		c-0.5-0.3-1.1-0.6-1.8-0.7c-0.2-0.1-0.4,0.1-0.5,0.3c-0.2,0.5-0.6,0.8-1.1,0.8c-0.5,0-1-0.3-1.1-0.8c-0.1-0.2-0.3-0.4-0.5-0.3
		c-0.6,0.2-1.2,0.4-1.8,0.7c-0.2,0.1-0.2,0.3-0.1,0.6c0.2,0.4,0.1,1-0.2,1.4c-0.4,0.4-0.9,0.4-1.4,0.2c-0.2-0.1-0.4-0.1-0.6,0.1
		c-0.3,0.5-0.6,1.1-0.7,1.8c-0.1,0.2,0.1,0.4,0.3,0.5c0.5,0.2,0.8,0.6,0.8,1.1c0,0.5-0.3,1-0.8,1.1c-0.2,0.1-0.4,0.3-0.3,0.5
		c0.2,0.6,0.4,1.2,0.7,1.8c0.1,0.2,0.3,0.2,0.6,0.1c0.4-0.2,1-0.1,1.4,0.2c0.4,0.4,0.4,0.9,0.2,1.4c-0.1,0.2-0.1,0.4,0.1,0.6
		c0.5,0.3,1.1,0.6,1.8,0.7c0.2,0.1,0.4-0.1,0.5-0.3c0.2-0.5,0.6-0.8,1.1-0.8c0.5,0,1,0.3,1.1,0.8c0.1,0.2,0.3,0.4,0.5,0.3
		c0.6-0.2,1.2-0.4,1.8-0.7c0.2-0.1,0.2-0.3,0.1-0.6c-0.2-0.4-0.1-1,0.2-1.4c0.4-0.4,0.9-0.5,1.4-0.2c0.2,0.1,0.4,0.1,0.6-0.1
		c0.3-0.5,0.6-1.1,0.7-1.8C443.1,418.9,442.9,418.7,442.7,418.6z M436.7,420.7c-1.8,0-3.2-1.4-3.2-3.2c0-1.8,1.4-3.2,3.2-3.2
		c1.8,0,3.2,1.4,3.2,3.2C439.9,419.2,438.4,420.7,436.7,420.7z"/>
	<path class="st31" d="M377.4,418.6c-0.5-0.2-0.8-0.6-0.8-1.1c0-0.5,0.3-1,0.8-1.1c0.2-0.1,0.4-0.3,0.3-0.5
		c-0.2-0.6-0.4-1.2-0.7-1.8c-0.1-0.2-0.3-0.2-0.6-0.1c-0.4,0.2-1,0.1-1.4-0.2c-0.4-0.4-0.4-0.9-0.2-1.4c0.1-0.2,0.1-0.4-0.1-0.6
		c-0.5-0.3-1.1-0.6-1.8-0.7c-0.2-0.1-0.4,0.1-0.5,0.3c-0.2,0.5-0.6,0.8-1.1,0.8c-0.5,0-1-0.3-1.1-0.8c-0.1-0.2-0.3-0.4-0.5-0.3
		c-0.6,0.2-1.2,0.4-1.8,0.7c-0.2,0.1-0.2,0.3-0.1,0.6c0.2,0.4,0.1,1-0.2,1.4c-0.4,0.4-0.9,0.4-1.4,0.2c-0.2-0.1-0.4-0.1-0.6,0.1
		c-0.3,0.5-0.6,1.1-0.7,1.8c-0.1,0.2,0.1,0.4,0.3,0.5c0.5,0.2,0.8,0.6,0.8,1.1c0,0.5-0.3,1-0.8,1.1c-0.2,0.1-0.4,0.3-0.3,0.5
		c0.2,0.6,0.4,1.2,0.7,1.8c0.1,0.2,0.3,0.2,0.6,0.1c0.4-0.2,1-0.1,1.4,0.2c0.4,0.4,0.4,0.9,0.2,1.4c-0.1,0.2-0.1,0.4,0.1,0.6
		c0.5,0.3,1.1,0.6,1.8,0.7c0.2,0.1,0.4-0.1,0.5-0.3c0.2-0.5,0.6-0.8,1.1-0.8c0.5,0,1,0.3,1.1,0.8c0.1,0.2,0.3,0.4,0.5,0.3
		c0.6-0.2,1.2-0.4,1.8-0.7c0.2-0.1,0.2-0.3,0.1-0.6c-0.2-0.4-0.1-1,0.2-1.4c0.4-0.4,0.9-0.5,1.4-0.2c0.2,0.1,0.4,0.1,0.6-0.1
		c0.3-0.5,0.6-1.1,0.7-1.8C377.8,418.9,377.6,418.7,377.4,418.6z M371.3,420.7c-1.8,0-3.2-1.4-3.2-3.2c0-1.8,1.4-3.2,3.2-3.2
		c1.8,0,3.2,1.4,3.2,3.2C374.5,419.2,373.1,420.7,371.3,420.7z"/>
</g>
<g>
	<path id="path4989_10_" class="st43" d="M78.6,388.3c-0.9,0.2-1.8,0.5-2.7,0.9c-0.6,0.2-0.9,0.8-0.7,1.5l0.9,3.5
		c0.1,0.5-0.1,1.1-0.6,1.4c-1.1,0.7-2.2,1.4-3.1,2.3c-0.4,0.4-1,0.5-1.5,0.2l-3.2-1.8c-0.6-0.3-1.3-0.2-1.7,0.3
		c-1.1,1.4-2,3.1-2.8,4.7c-0.3,0.6,0,1.3,0.5,1.6l3.1,1.9c0.5,0.3,0.7,0.9,0.5,1.4c-0.3,1.2-0.5,2.5-0.5,3.8c0,0.6-0.3,1-0.9,1.2
		l-3.5,0.9c-0.7,0.2-1.1,0.7-1,1.4c0.1,0.9,0.3,1.8,0.5,2.7c0.2,0.9,0.5,1.8,0.9,2.7c0.2,0.6,0.8,0.9,1.5,0.7l3.5-0.9
		c0.5-0.1,1.1,0.1,1.4,0.6c0.7,1.1,1.4,2.2,2.3,3.1c0.4,0.4,0.5,1,0.2,1.5l-1.8,3.2c-0.3,0.6-0.2,1.3,0.3,1.7c1.4,1.1,3.1,2,4.7,2.8
		c0.6,0.3,1.3,0,1.6-0.5l1.9-3.1c0.3-0.5,0.9-0.7,1.4-0.5c1.2,0.3,2.5,0.5,3.8,0.5c0.6,0,1,0.3,1.2,0.9l0.9,3.5
		c0.2,0.7,0.7,1.1,1.4,1c0.9-0.1,1.8-0.3,2.7-0.5s1.8-0.5,2.7-0.9c0.6-0.2,0.9-0.8,0.7-1.5l-0.9-3.5c-0.1-0.5,0.1-1.1,0.6-1.4
		c1.1-0.7,2.2-1.4,3.1-2.3c0.4-0.4,1-0.5,1.5-0.2l3.2,1.8c0.6,0.3,1.3,0.2,1.7-0.3c1.1-1.4,2-3.1,2.8-4.7c0.3-0.6,0-1.3-0.5-1.6
		l-3.1-1.9c-0.5-0.3-0.7-0.9-0.5-1.4c0.3-1.2,0.5-2.5,0.5-3.8c0-0.6,0.3-1,0.9-1.2l3.5-0.9c0.7-0.2,1.1-0.7,1-1.4
		c-0.1-0.9-0.3-1.8-0.5-2.7c-0.2-0.9-0.5-1.8-0.9-2.7c-0.2-0.6-0.8-0.9-1.5-0.7l-3.5,0.9c-0.5,0.1-1.1-0.1-1.4-0.6
		c-0.7-1.1-1.4-2.2-2.3-3.1c-0.4-0.4-0.5-1-0.2-1.5l1.8-3.2c0.3-0.6,0.2-1.3-0.3-1.7c-1.4-1.1-3.1-2-4.7-2.8c-0.6-0.3-1.3,0-1.6,0.5
		l-1.9,3.1c-0.3,0.5-0.9,0.7-1.4,0.5c-1.2-0.3-2.5-0.5-3.8-0.5c-0.6,0-1-0.3-1.2-0.9l-0.9-3.5c-0.2-0.7-0.7-1.1-1.4-1
		C80.4,387.9,79.5,388,78.6,388.3z M81.4,399.4c6.1-1.6,12.4,2.1,14,8.2c1.6,6.1-2.1,12.4-8.2,14s-12.4-2.1-14-8.2
		C71.6,407.3,75.3,401,81.4,399.4z"/>
	<g>
		<path class="st43" d="M51.6,428.5H43c-0.7,0-1.2,0.5-1.2,1.2c0,0.7,0.5,1.2,1.2,1.2h8.5c0.7,0,1.2-0.5,1.2-1.2
			C52.7,429.1,52.2,428.5,51.6,428.5z"/>
		<path class="st43" d="M45.1,435.5c0.2,1.1,1.1,1.9,2.2,1.9c1.1,0,2-0.8,2.2-1.9c1.5-0.1,2.6-1.3,2.6-2.8h-9.6
			C42.5,434.2,43.6,435.4,45.1,435.5z"/>
		<path class="st43" d="M58.8,408.9c0-6.4-5.2-11.5-11.5-11.5c-6.4,0-11.5,5.2-11.5,11.5c0,2.7,0.9,5.1,2.5,7.1
			c1.3,1.7,2.6,3.6,3.7,5.5v3.8h10.6v-3.7c1.1-1.8,2.5-3.9,3.8-5.6C57.9,414,58.8,411.6,58.8,408.9z"/>
	</g>
	<g>
		<path class="st43" d="M47.1,409c-2.1,0-3.9-1.7-3.9-3.9c0-2.1,1.7-3.9,3.9-3.9c2.1,0,3.9,1.7,3.9,3.9C51,407.3,49.2,409,47.1,409z
			"/>
		<polygon class="st43" points="40.7,415.4 40.7,410.7 44.9,410.1 47.1,412.7 49.4,410.1 53.5,410.7 53.5,415.4 		"/>
	</g>
	<g>
		<g>
			<path class="st43" d="M52.5,393.5c3.1-3.6,7-6.6,11.7-8.6c4.3-1.8,8.7-2.7,13-2.6"/>
			<g>
				<path class="st12" d="M81.8,382.6c-2.2,0.6-5,1.8-6.8,3.1l1.6-3.5l-1-3.7C77.1,380.1,79.7,381.7,81.8,382.6z"/>
			</g>
		</g>
	</g>
	<g>
		<g>
			<path class="st43" d="M112.9,425c-2.5,4.1-6,7.6-10.3,10.3c-3.9,2.4-8.2,3.9-12.5,4.5"/>
			<g>
				<path class="st12" d="M85.5,440c2.1-1,4.7-2.5,6.3-4.1l-1.1,3.7l1.6,3.5C90.5,441.8,87.7,440.7,85.5,440z"/>
			</g>
		</g>
	</g>
</g>
<g>
	<g>
		<path class="st45" d="M130.6,290.9c-9.3-3.3-23.4-7.3-39.2-7.9v-53.1h39.2V290.9L130.6,290.9z M89.4,225.7c-1.2,0-2.1,1-2.1,2.2
			v55c-0.1,0-7.9,0.1-11.4,0.3v-59.5c0-1.2-0.9-2.1-2.1-2.1H59.5v-26.5h40.3c0,0-0.1,30.6,0,30.6H89.4L89.4,225.7z M71.8,283.5
			c-11.5,1-20.8,3-27.8,5v-62.8h27.8V283.5L71.8,283.5z M142.1,295.6c-0.3-0.2-3-1.5-7.4-3.2v-64.5c0-1.2-0.9-2.2-2.1-2.2H104
			c0,0.1,0-32.6,0-32.6c0-1.2-0.9-2.1-2-2.1H57.4c-1.2,0-2,0.9-2,2.1v28.5H42c-1.2,0-2.1,0.9-2.1,2.1v66.1
			c-6.9,2.3-10.7,4.3-11.1,4.4c-1,0.5-1.4,1.8-0.9,2.8c0.5,1,1.8,1.4,2.8,0.9c12.3-6.2,31.2-9.7,45.1-10.5
			c3.5-0.2,14.2-0.3,15.5-0.3c15.1,0.7,32.6,4.8,48.8,12.2c1.1,0.5,2.3,0.1,2.8-0.9C143.5,297.4,143.1,296.1,142.1,295.6
			L142.1,295.6z"/>
		<path class="st44" d="M131.1,291.6l-0.7-0.2c-9.1-3.2-23.2-7.2-39.1-7.9l-0.5,0v-54.1h40.2V291.6z M43.5,289.2v-64h28.8V284
			l-0.5,0c-9.8,0.9-19.1,2.5-27.7,5L43.5,289.2z"/>
	</g>
	<g>
		<path class="st45" d="M66.5,202.2c-0.8,0-1.6,0.8-1.6,1.6c0,0.8,0.8,1.6,1.6,1.6h7c0.8,0,1.6-0.8,1.6-1.6c0-0.8-0.8-1.6-1.6-1.6
			H66.5z"/>
	</g>
	<g>
		<path class="st45" d="M65.1,211.2c-0.9,0-1.6,0.6-1.6,1.4c0,0.8,0.7,1.4,1.6,1.4h5.6c0.9,0,1.6-0.6,1.6-1.4c0-0.8-0.7-1.4-1.6-1.4
			H65.1z"/>
	</g>
	<path class="st47" d="M124.9,241.2h-7c-1.2,0-2.1-0.9-2.1-2.1c0-1.2,0.9-2.1,2.1-2.1h7c1.2,0,2.1,0.9,2.1,2.1
		C127,240.3,126.1,241.2,124.9,241.2L124.9,241.2z"/>
	<path class="st47" d="M124.9,249.4H111c-1.2,0-2.1-0.9-2.1-2.1c0-1.2,0.9-2.1,2.1-2.1h13.9c1.2,0,2.1,0.9,2.1,2.1
		C127,248.5,126.1,249.4,124.9,249.4L124.9,249.4z"/>
	<path class="st47" d="M124.9,258.1h-16.7c-1.2,0-2.1-1.1-2.1-2.3c0-1.2,0.9-2.3,2.1-2.3h16.7c1.2,0,2.1,1.1,2.1,2.3
		C127,256.9,126.1,258.1,124.9,258.1L124.9,258.1z"/>
	<path class="st47" d="M124.9,266.3h-9.7c-1.2,0-2.1-0.9-2.1-2.1s0.9-2.1,2.1-2.1h9.7c1.2,0,2.1,0.9,2.1,2.1
		S126.1,266.3,124.9,266.3L124.9,266.3z"/>
	<path class="st47" d="M124.9,275.9h-7c-1.2,0-2.1-0.9-2.1-2.1s0.9-2.1,2.1-2.1h7c1.2,0,2.1,0.9,2.1,2.1S126.1,275.9,124.9,275.9
		L124.9,275.9z"/>
	<path class="st47" d="M67.9,238.5h-7c-1.2,0-2.1-0.9-2.1-2.1c0-1.2,0.9-2.1,2.1-2.1h7c1.2,0,2.1,0.9,2.1,2.1
		C69.9,237.6,69,238.5,67.9,238.5L67.9,238.5z"/>
	<path class="st47" d="M67.9,246.7h-5.6c-1.2,0-2.1-0.9-2.1-2.1c0-1.2,0.9-2.1,2.1-2.1h5.6c1.2,0,2.1,0.9,2.1,2.1
		C69.9,245.8,69,246.7,67.9,246.7L67.9,246.7z"/>
	<path class="st47" d="M67.9,254.9h-7c-1.2,0-2.1-0.9-2.1-2.1s0.9-2.1,2.1-2.1h7c1.2,0,2.1,0.9,2.1,2.1S69,254.9,67.9,254.9
		L67.9,254.9z"/>
	<path class="st47" d="M67.9,263.5h-5.6c-1.2,0-2.1-0.9-2.1-2.1s0.9-2.1,2.1-2.1h5.6c1.2,0,2.1,0.9,2.1,2.1S69,263.5,67.9,263.5
		L67.9,263.5z"/>
	<path class="st47" d="M63.2,273.1c-1.1,0-2.1-0.6-2.1-1.8c0-1.2,0.9-1.9,2.1-2l4.2,0c1.1,0,2.1,1,2.1,2.1c0,1.2-0.9,1.8-2.1,1.8
		L63.2,273.1C63.2,273.1,63.2,273.1,63.2,273.1L63.2,273.1z"/>
	<path class="st47" d="M112.4,241.2H95.7c-1.2,0-2.1-0.9-2.1-2.1c0-1.2,0.9-2.1,2.1-2.1h16.7c1.2,0,2.1,0.9,2.1,2.1
		C114.5,240.3,113.6,241.2,112.4,241.2L112.4,241.2z"/>
	<path class="st47" d="M101.3,249.4h-5.6c-1.2,0-2.1-0.9-2.1-2.1c0-1.2,0.9-2.1,2.1-2.1h5.6c1.2,0,2.1,0.9,2.1,2.1
		C103.3,248.5,102.4,249.4,101.3,249.4L101.3,249.4z"/>
	<path class="st47" d="M101.3,258.1h-5.6c-1.2,0-2.1-1.1-2.1-2.3c0-1.2,0.9-2.3,2.1-2.3h5.6c1.2,0,2.1,1.1,2.1,2.3
		C103.3,256.9,102.4,258.1,101.3,258.1L101.3,258.1z"/>
	<path class="st47" d="M109.6,266.3H95.7c-1.2,0-2.1-0.9-2.1-2.1s0.9-2.1,2.1-2.1h13.9c1.2,0,2.1,0.9,2.1,2.1
		S110.8,266.3,109.6,266.3L109.6,266.3z"/>
	<path class="st47" d="M112.4,275.9H95.7c-1.2,0-2.1-0.9-2.1-2.1s0.9-2.1,2.1-2.1h16.7c1.2,0,2.1,0.9,2.1,2.1
		S113.6,275.9,112.4,275.9L112.4,275.9z"/>
	<path class="st47" d="M53.9,238.5h-4.2c-1.2,0-2.1-0.9-2.1-2.1c0-1.2,0.9-2.1,2.1-2.1h4.2c1.2,0,2.1,0.9,2.1,2.1
		C56,237.6,55.1,238.5,53.9,238.5L53.9,238.5z"/>
	<path class="st47" d="M55.3,246.7h-5.6c-1.2,0-2.1-0.9-2.1-2.1c0-1.2,0.9-2.1,2.1-2.1h5.6c1.2,0,2.1,0.9,2.1,2.1
		C57.4,245.8,56.5,246.7,55.3,246.7L55.3,246.7z"/>
	<path class="st47" d="M53.9,254.9h-4.2c-1.2,0-2.1-0.9-2.1-2.1s0.9-2.1,2.1-2.1h4.2c1.2,0,2.1,0.9,2.1,2.1S55.1,254.9,53.9,254.9
		L53.9,254.9z"/>
	<path class="st47" d="M55.3,263.5h-5.6c-1.2,0-2.1-0.9-2.1-2.1s0.9-2.1,2.1-2.1h5.6c1.2,0,2.1,0.9,2.1,2.1S56.5,263.5,55.3,263.5
		L55.3,263.5z"/>
	<path class="st47" d="M56.7,273.1h-7c-1.2,0-2.1-0.9-2.1-2.1s0.9-2.1,2.1-2.1h7c1.2,0,2.1,0.9,2.1,2.1S57.9,273.1,56.7,273.1
		L56.7,273.1z"/>
	<g>
		<path class="st45" d="M80.4,202.2c-0.8,0-1.6,0.8-1.6,1.6c0,0.8,0.8,1.6,1.6,1.6h13.9c0.8,0,1.6-0.8,1.6-1.6
			c0-0.8-0.8-1.6-1.6-1.6H80.4z"/>
	</g>
	<g>
		<path class="st45" d="M76.2,211.2c-0.9,0-1.6,0.6-1.6,1.4c0,0.8,0.7,1.4,1.6,1.4h18.1c0.9,0,1.6-0.6,1.6-1.4
			c0-0.8-0.7-1.4-1.6-1.4H76.2z"/>
	</g>
</g>
<polygon class="st44" points="470.2,238.9 470.2,244.1 497.6,234.2 497.6,227.1 "/>
<polygon class="st44" points="470.2,250.2 470.2,255.4 497.6,246.9 497.6,239.8 "/>
<polygon class="st44" points="470.2,261.8 470.2,266.9 497.6,260 497.6,252.9 "/>
<polygon class="st44" points="470.2,273.7 470.2,278.9 497.6,273.3 497.6,266.2 "/>
<polygon class="st44" points="470.2,285.1 470.2,290.2 497.6,286.2 497.6,279.1 "/>
<polygon class="st44" points="470.2,296.6 470.2,301.8 497.6,299.3 497.6,292.2 "/>
<polygon class="st44" points="470.2,307.5 470.2,312.7 497.6,312.4 497.6,305.3 "/>
<rect x="66.1" y="185.8" class="st45" width="27.2" height="6.5"/>
</svg>
